<svg version="1.1" id="Layer_1" xmlns="http://www.w3.org/2000/svg" xmlns:xlink="http://www.w3.org/1999/xlink" x="0px" y="0px"
	 width="100%" viewBox="0 0 1600 449" enable-background="new 0 0 1600 449" xml:space="preserve">
<path fill="#202020" opacity="1.000000" stroke="none" 
	d="
M1176.000000,450.000000 
	C784.047729,450.000000 392.595428,450.000000 1.071581,450.000000 
	C1.071581,300.399323 1.071581,150.798615 1.071581,1.098945 
	C534.333313,1.098945 1067.666626,1.098945 1600.973877,1.098945 
	C1600.973877,150.738022 1600.973877,300.369019 1600.973877,450.000000 
	C1459.465210,450.000000 1317.982544,450.000000 1176.000000,450.000000 
M94.173141,245.499908 
	C94.171516,264.159180 94.159355,282.818481 94.173927,301.477753 
	C94.179070,308.058716 95.080750,308.955750 101.672928,308.957489 
	C135.160156,308.966400 168.647385,308.963043 202.134613,308.947815 
	C203.585464,308.947174 205.036255,308.787445 206.955444,308.674164 
	C206.955444,299.593506 206.957199,290.806244 206.954956,282.019012 
	C206.952789,273.558380 206.950974,273.562469 215.191620,273.566620 
	C224.471848,273.571350 233.752090,273.567719 243.342224,273.567719 
	C243.446915,271.370697 243.590744,269.751648 243.591202,268.132538 
	C243.597595,244.808121 243.681564,221.482712 243.443466,198.160645 
	C243.416290,195.499680 242.191574,192.312790 240.451950,190.290268 
	C221.896988,168.718048 219.954361,137.135757 237.164413,114.635941 
	C242.244186,107.994812 244.516678,101.710823 243.575439,93.811722 
	C243.536270,93.483032 243.570557,93.145866 243.566345,92.812698 
	C243.487122,86.541489 242.635376,85.693802 236.228958,85.692574 
	C191.579346,85.684021 146.929733,85.680626 102.280128,85.686745 
	C94.737488,85.687782 94.167931,86.291710 94.167854,94.057266 
	C94.167358,144.204803 94.170914,194.352356 94.173141,245.499908 
M247.691025,109.189171 
	C238.579407,117.853752 232.813049,128.400635 230.812286,140.770584 
	C224.181137,181.768585 261.562469,215.133820 301.703156,204.177292 
	C335.194153,195.035828 352.356323,156.504745 337.026001,125.440186 
	C320.037079,91.014671 275.273376,83.602394 247.691025,109.189171 
M463.574036,201.265930 
	C460.675995,190.338470 454.097473,182.153809 442.767822,180.963348 
	C430.468933,179.671021 417.929230,180.670273 405.333984,180.670273 
	C405.333984,211.576965 405.333984,242.430939 405.333984,273.391907 
	C408.988342,273.391907 412.243622,273.391907 415.992004,273.391907 
	C415.992004,260.683289 415.992004,248.257477 415.992004,235.239349 
	C419.588409,235.239349 422.736084,235.517670 425.813202,235.170456 
	C429.857788,234.714050 432.153839,236.304718 434.068207,239.822250 
	C438.920532,248.737961 444.109070,257.471771 449.218475,266.246124 
	C454.080505,274.595673 455.573761,275.184509 465.958862,272.901215 
	C458.638123,260.071747 451.383881,247.358917 444.100464,234.594910 
	C460.371277,227.440720 465.339600,219.013855 463.574036,201.265930 
M998.171509,232.577362 
	C993.287964,246.153748 988.404419,259.730133 983.476807,273.429016 
	C995.099548,274.958466 995.083740,274.953278 998.430237,264.781281 
	C999.156982,262.572083 1000.346741,260.473511 1000.779663,258.219543 
	C1001.356812,255.214920 1003.036499,254.685577 1005.737488,254.723953 
	C1014.898682,254.854095 1024.062744,254.779358 1033.225708,254.780380 
	C1045.491821,254.781738 1045.493042,254.780258 1049.712158,265.989746 
	C1050.415283,267.857483 1050.927246,269.825592 1051.865234,271.565216 
	C1052.390869,272.540192 1053.556274,273.714874 1054.526001,273.805145 
	C1057.604980,274.091736 1060.727417,273.911163 1064.452637,273.911163 
	C1062.535156,268.604767 1060.853149,263.958099 1059.176758,259.309448 
	C1050.147827,234.273315 1041.102051,209.243210 1032.119263,184.190582 
	C1031.167236,181.535416 1029.856201,179.914917 1026.725952,180.387665 
	C1025.097290,180.633652 1023.378113,180.602295 1021.739197,180.390808 
	C1018.417358,179.962128 1016.780701,181.139740 1015.610046,184.479874 
	C1010.056458,200.326508 1004.169922,216.056503 998.171509,232.577362 
M751.861450,239.500046 
	C751.861450,228.750870 751.861450,218.001694 751.861450,207.052521 
	C747.947876,207.052521 744.665955,207.052521 740.803467,207.052521 
	C740.803467,210.320526 740.803467,213.481522 740.803467,215.469025 
	C735.558533,212.343674 730.624390,207.787216 724.885925,206.267410 
	C701.590149,200.097580 679.862976,220.892532 683.467041,245.234329 
	C686.620911,266.535339 709.396484,281.195892 728.052917,273.483673 
	C732.499268,271.645660 736.088196,267.733429 740.045654,264.794434 
	C740.325684,267.520447 740.627991,270.463379 740.918274,273.288757 
	C744.750549,273.288757 748.150452,273.288757 751.860291,273.288757 
	C751.860291,262.092407 751.860291,251.296234 751.861450,239.500046 
M1387.921509,241.500015 
	C1387.921509,230.078186 1387.921509,218.656357 1387.921509,207.201828 
	C1383.817505,207.201828 1380.421265,207.201828 1376.747925,207.201828 
	C1376.747925,210.464340 1376.747925,213.378464 1376.747925,216.225327 
	C1376.314087,216.305481 1376.086060,216.410233 1376.026001,216.349365 
	C1374.980469,215.288940 1373.972412,214.191666 1372.923584,213.134506 
	C1366.209717,206.367294 1358.053467,203.787567 1348.763794,205.460617 
	C1326.479004,209.474091 1314.364502,229.664078 1321.015137,251.403656 
	C1326.411255,269.042358 1347.782471,280.301544 1364.006958,273.526764 
	C1368.463745,271.665741 1372.085571,267.804962 1376.078613,264.870667 
	C1376.330688,267.576141 1376.604004,270.510742 1376.863403,273.294067 
	C1380.767090,273.294067 1384.179688,273.294067 1387.921509,273.294067 
	C1387.921509,262.771118 1387.921509,252.635574 1387.921509,241.500015 
M892.910828,180.653000 
	C892.910828,178.509232 892.910828,176.365463 892.910828,174.067932 
	C889.038513,174.067932 885.510071,174.067932 882.107483,174.067932 
	C882.107483,207.418411 882.107483,240.345200 882.107483,273.305664 
	C885.809387,273.305664 889.206848,273.305664 892.915527,273.305664 
	C892.915527,260.443787 892.869446,247.967896 892.929504,235.492508 
	C892.981812,224.616730 900.814148,216.488541 911.153198,216.436600 
	C921.493286,216.384674 929.218384,224.403137 929.349792,235.465927 
	C929.442810,243.293320 929.379456,251.122589 929.383484,258.951019 
	C929.385986,263.715546 929.383972,268.480042 929.383972,273.281891 
	C933.477783,273.281891 936.845215,273.281891 940.560486,273.281891 
	C940.560486,260.066376 940.575256,247.261429 940.546265,234.456573 
	C940.541382,232.295746 940.469543,230.121292 940.221863,227.977020 
	C938.511292,213.169006 923.156860,202.046783 908.673645,205.772598 
	C903.170166,207.188354 898.157898,210.513718 892.910889,212.973846 
	C892.910889,202.885193 892.910889,192.249313 892.910828,180.653000 
M490.913422,211.404007 
	C479.206635,220.599762 474.537537,232.843704 477.248291,247.182617 
	C479.887573,261.143433 488.376465,270.677124 502.436676,274.646271 
	C516.953796,278.744415 535.624695,268.989990 539.342102,255.201782 
	C538.376465,254.975006 537.373718,254.858322 536.462280,254.505615 
	C531.544922,252.602814 528.014954,253.346664 524.318604,257.898010 
	C518.986938,264.463013 509.605194,266.030396 501.937317,262.666107 
	C494.402191,259.360077 490.089722,253.459213 488.691559,244.617035 
	C506.981415,244.617035 524.718323,244.617035 542.931519,244.617035 
	C543.488953,230.188202 539.290649,218.331009 527.511475,210.476517 
	C515.700195,202.600601 503.395233,203.186981 490.913422,211.404007 
M610.068726,229.640015 
	C604.692322,250.242279 614.780212,269.014923 634.214478,274.573059 
	C648.834229,278.754242 667.476318,269.112885 671.279663,255.232010 
	C670.321350,254.997070 669.334961,254.851868 668.419312,254.514618 
	C663.542419,252.718414 659.989563,253.171967 656.266357,257.887970 
	C651.048096,264.497620 641.547791,266.024506 633.868103,262.658173 
	C626.323547,259.351074 622.064270,253.399643 620.620972,244.601608 
	C638.878540,244.601608 656.631409,244.601608 674.270996,244.601608 
	C677.438232,227.566254 665.083313,209.038452 648.959595,205.938858 
	C631.459045,202.574585 616.799866,211.277420 610.068726,229.640015 
M1460.004395,247.500061 
	C1459.991455,241.838333 1460.167969,236.168594 1459.929688,230.516373 
	C1459.233154,213.992920 1443.680542,201.885223 1427.702637,205.901535 
	C1422.454712,207.220688 1417.687012,210.449860 1412.676025,212.816803 
	C1412.505615,211.410049 1412.241089,209.226578 1412.005981,207.286591 
	C1408.162964,207.286591 1404.779663,207.286591 1401.550903,207.286591 
	C1401.550903,229.596085 1401.550903,251.464294 1401.550903,273.264648 
	C1405.354126,273.264648 1408.732056,273.264648 1412.237549,273.264648 
	C1412.309448,271.869293 1412.402710,270.886047 1412.404297,269.902649 
	C1412.424438,258.245880 1412.227661,246.584381 1412.499756,234.933746 
	C1412.753296,224.077393 1420.601196,216.365021 1430.730713,216.432632 
	C1441.131348,216.502060 1448.762207,224.493530 1448.866821,235.515991 
	C1448.931519,242.342957 1448.885742,249.170975 1448.887573,255.998520 
	C1448.889160,261.752960 1448.887939,267.507385 1448.887939,273.320435 
	C1452.995850,273.320435 1456.387939,273.320435 1460.004395,273.320435 
	C1460.004395,264.804352 1460.004395,256.652191 1460.004395,247.500061 
M272.342621,230.500122 
	C272.342621,244.740311 272.342621,258.980499 272.342621,273.607544 
	C277.573517,273.607544 282.041412,273.607574 286.509277,273.607574 
	C290.951813,273.607574 295.394348,273.607544 299.934448,273.607544 
	C299.934448,252.013214 299.934448,231.000778 299.934448,210.429077 
	C290.691132,210.429077 281.808411,210.429077 272.342621,210.429077 
	C272.342621,216.623993 272.342621,223.062149 272.342621,230.500122 
M1150.820435,264.118256 
	C1147.935181,262.529572 1144.363037,261.534912 1142.342407,259.198456 
	C1139.934692,256.414764 1138.008667,256.826843 1135.484375,258.085236 
	C1133.900269,258.874908 1132.364990,259.762115 1130.154297,260.959442 
	C1132.083252,263.343109 1133.492310,265.594604 1135.377563,267.328461 
	C1145.146729,276.313019 1161.517090,277.477692 1172.445801,269.985382 
	C1177.491577,266.526245 1180.699707,261.906128 1180.929932,255.493332 
	C1181.255249,246.428940 1175.406494,241.906143 1168.275146,238.797714 
	C1161.738892,235.948639 1154.697388,234.251373 1148.188110,231.351501 
	C1145.859497,230.314117 1142.956543,227.234222 1142.968994,225.102325 
	C1142.985474,222.330627 1145.344604,219.329376 1147.298462,216.915039 
	C1148.279053,215.703384 1150.550903,215.370163 1152.314209,214.986893 
	C1160.549805,213.196915 1167.309082,215.788437 1172.459717,222.479401 
	C1175.442871,220.650909 1178.090576,219.028000 1180.713989,217.419907 
	C1174.852051,206.599167 1160.695801,201.825378 1147.427979,205.906631 
	C1138.023071,208.799637 1132.300415,215.501465 1132.019775,223.951126 
	C1131.743164,232.278015 1136.289673,238.109634 1146.131592,241.611893 
	C1152.076538,243.727432 1158.186157,245.381592 1164.124878,247.513000 
	C1167.525391,248.733414 1170.355957,250.775558 1170.371338,255.023544 
	C1170.386963,259.311401 1167.967529,262.232910 1164.255371,263.165619 
	C1160.196411,264.185516 1155.833252,263.995361 1150.820435,264.118256 
M1232.696411,263.149658 
	C1230.625122,261.788940 1228.085815,260.807678 1226.598267,258.973541 
	C1224.644409,256.564331 1222.874268,256.737457 1220.591553,257.882538 
	C1218.844604,258.758881 1217.079834,259.599792 1214.531494,260.842468 
	C1216.821167,263.530731 1218.425293,266.100677 1220.650269,267.904816 
	C1229.135986,274.785217 1238.760498,276.399811 1249.277832,273.564545 
	C1258.298096,271.132874 1264.942505,264.162811 1265.592041,256.127228 
	C1266.206665,248.522552 1261.545410,242.350784 1252.160889,238.350555 
	C1251.855225,238.220261 1251.532471,238.130356 1251.218384,238.019684 
	C1244.951416,235.811920 1238.594971,233.824921 1232.442139,231.335175 
	C1225.990356,228.724518 1225.253540,221.621033 1230.892578,217.513824 
	C1232.457520,216.373947 1234.407715,215.569077 1236.302368,215.109528 
	C1244.688110,213.075439 1251.669312,215.534622 1257.079712,222.457535 
	C1260.001465,220.687088 1262.648682,219.082993 1265.270996,217.494019 
	C1260.860718,208.800446 1249.591553,203.228455 1238.948486,204.405472 
	C1231.249878,205.256866 1224.365845,207.870819 1219.660278,214.475189 
	C1212.793213,224.113190 1217.071899,236.254654 1229.254150,241.010330 
	C1235.432251,243.422104 1241.913818,245.045624 1248.168457,247.277130 
	C1251.691895,248.534195 1254.901489,250.415695 1254.947998,254.922913 
	C1254.997192,259.693512 1252.110596,262.817444 1248.020996,263.492065 
	C1243.287231,264.272888 1238.302490,263.531891 1232.696411,263.149658 
M1086.666382,240.880035 
	C1093.298950,243.051697 1099.974976,245.101944 1106.546265,247.445236 
	C1109.928955,248.651474 1112.875977,250.579956 1112.960327,254.835587 
	C1113.049927,259.351868 1110.350342,261.834412 1106.602173,263.467346 
	C1099.636108,266.502197 1090.088623,264.958282 1084.870117,259.238312 
	C1082.473022,256.610840 1080.620850,256.755676 1078.063232,258.107025 
	C1076.485962,258.940369 1074.905884,259.768250 1073.027344,260.756104 
	C1074.040771,262.388641 1074.766724,263.889954 1075.788330,265.152100 
	C1085.463257,277.105927 1107.755615,278.276459 1118.309570,267.080811 
	C1120.659180,264.588318 1122.464722,260.912811 1123.024902,257.533936 
	C1124.496094,248.661469 1120.668457,242.910309 1110.914307,238.809525 
	C1104.490479,236.108902 1097.777588,234.100494 1091.217529,231.717957 
	C1087.907837,230.515945 1084.550049,228.451111 1085.371948,224.707535 
	C1086.033203,221.695465 1088.595337,218.980652 1090.711060,216.468277 
	C1091.530762,215.494843 1093.412720,215.304230 1094.861328,214.990601 
	C1103.094849,213.208023 1109.862061,215.740875 1115.080078,222.472061 
	C1118.029907,220.675003 1120.661743,219.071594 1123.722412,217.207001 
	C1122.169067,215.259506 1121.153442,213.509613 1119.708740,212.253143 
	C1110.994263,204.673965 1101.056152,202.446716 1089.974976,205.928543 
	C1081.948486,208.450531 1076.195312,213.247498 1074.847412,222.012863 
	C1073.432739,231.212570 1078.229492,236.802292 1086.666382,240.880035 
M554.234680,266.215118 
	C565.328735,276.192932 580.026367,277.846588 591.999573,270.317749 
	C597.342163,266.958282 600.775879,262.323273 601.086914,255.695435 
	C601.512085,246.635040 595.759399,242.031448 588.615906,238.886993 
	C582.394287,236.148361 575.792053,234.281647 569.386536,231.951050 
	C565.996643,230.717697 562.895081,229.140701 562.809265,224.786667 
	C562.721436,220.326202 565.196167,217.690933 568.979614,216.003082 
	C570.032288,215.533493 571.178650,215.232742 572.311157,214.989990 
	C580.570129,213.219666 587.379272,215.662949 592.605591,222.443008 
	C595.550903,220.669418 598.219849,219.062210 600.831726,217.489410 
	C597.405090,207.894348 579.886230,201.586517 568.132263,205.665771 
	C558.201355,209.112320 552.361267,215.435059 552.186951,224.383453 
	C552.028564,232.514191 556.722839,238.245361 566.728882,241.768555 
	C572.527039,243.810135 578.472351,245.435593 584.261963,247.499222 
	C587.683777,248.718887 590.583801,250.818954 590.589111,254.979187 
	C590.594421,259.151459 588.098816,261.667847 584.492126,263.297455 
	C577.102966,266.636200 568.169678,264.784149 561.808472,258.955627 
	C560.694946,257.935394 558.432678,257.486786 556.892090,257.779663 
	C554.746826,258.187592 552.781738,259.543457 550.333618,260.682434 
	C551.723389,262.708923 552.739502,264.190582 554.234680,266.215118 
M830.389282,220.709137 
	C841.285645,213.011383 850.991333,215.960785 859.941467,224.343826 
	C863.205811,222.523666 866.195190,220.856857 869.212524,219.174438 
	C861.285278,207.159439 846.753174,202.303696 832.866516,206.676727 
	C819.191345,210.983154 809.491760,225.474930 809.765259,241.191483 
	C810.044556,257.243958 820.104431,270.280182 835.569214,274.630005 
	C847.684998,278.037811 862.445129,272.285614 869.146484,261.419067 
	C868.305176,260.918152 867.419800,260.481873 866.634644,259.908386 
	C862.527222,256.908356 859.256042,256.385376 854.570129,260.190338 
	C846.362366,266.854950 835.309814,265.232697 827.913879,257.625061 
	C817.942261,247.368149 818.754150,231.579941 830.389282,220.709137 
M1492.963623,200.497925 
	C1492.963623,195.737747 1492.963623,190.977554 1492.963623,186.183044 
	C1488.816284,186.183044 1485.382568,186.183044 1481.316528,186.183044 
	C1481.316528,193.116257 1481.316528,199.824768 1481.316528,206.953781 
	C1477.254517,206.953781 1473.827393,206.953781 1470.355469,206.953781 
	C1470.355469,210.833435 1470.355469,214.256516 1470.355469,218.229996 
	C1474.163208,218.229996 1477.720093,218.229996 1481.770142,218.229996 
	C1481.770142,236.987854 1481.770142,255.191406 1481.770142,273.350189 
	C1485.712402,273.350189 1489.135742,273.350189 1493.083374,273.350189 
	C1493.083374,254.819199 1493.083374,236.610718 1493.083374,217.868820 
	C1498.322998,217.868820 1503.043579,217.868820 1507.607178,217.868820 
	C1507.607178,213.914581 1507.607178,210.510849 1507.607178,206.772430 
	C1502.656494,206.772430 1498.032715,206.772430 1492.963501,206.772430 
	C1492.963501,204.781021 1492.963501,203.141632 1492.963623,200.497925 
M1296.226562,199.321320 
	C1296.226562,194.914261 1296.226562,190.507202 1296.226562,186.214508 
	C1292.095703,186.214508 1288.829956,186.214508 1284.934082,186.214508 
	C1284.934082,193.160629 1284.934082,199.853012 1284.934082,206.970917 
	C1280.887573,206.970917 1277.475830,206.970917 1273.949097,206.970917 
	C1273.949097,210.872131 1273.949097,214.312134 1273.949097,218.271423 
	C1277.758789,218.271423 1281.333008,218.271423 1285.396484,218.271423 
	C1285.396484,236.980331 1285.396484,255.172455 1285.396484,273.407745 
	C1289.171143,273.407745 1292.433105,273.407745 1296.247070,273.407745 
	C1296.247070,254.916565 1296.247070,236.703003 1296.247070,218.027222 
	C1301.532227,218.027222 1306.273926,218.027222 1311.150879,218.027222 
	C1311.150879,214.121094 1311.150879,210.690125 1311.150879,206.698456 
	C1306.167847,206.698456 1301.431885,206.698456 1296.229736,206.698456 
	C1296.229736,204.184052 1296.229736,202.226013 1296.226562,199.321320 
M765.088074,222.504425 
	C765.088074,239.417145 765.088074,256.329865 765.088074,273.335144 
	C769.200012,273.335144 772.589783,273.335144 776.388428,273.335144 
	C776.388428,271.351868 776.388062,269.716583 776.388550,268.081268 
	C776.391724,257.088440 776.265076,246.093613 776.434326,235.103333 
	C776.608826,223.767990 785.229553,215.727585 796.023560,216.525253 
	C797.301208,216.619659 798.577820,216.727905 800.117188,216.850647 
	C801.532227,213.298309 802.867126,209.947220 804.335510,206.260986 
	C793.502319,203.003403 784.898743,206.660355 776.843018,213.964783 
	C776.490906,211.209259 776.230347,209.170349 775.982056,207.227234 
	C772.274841,207.227234 768.871521,207.227234 765.088074,207.227234 
	C765.088074,212.234222 765.088074,216.870392 765.088074,222.504425 
M1192.357300,208.290268 
	C1192.357300,230.006943 1192.357300,251.723618 1192.357300,273.281036 
	C1196.569824,273.281036 1199.949463,273.281036 1203.260986,273.281036 
	C1203.260986,250.952164 1203.260986,229.072281 1203.260986,206.571289 
	C1199.448853,206.899475 1196.036499,207.193237 1192.357300,208.290268 
M211.573975,281.955353 
	C211.573975,289.531555 211.573975,297.107758 211.573975,304.683990 
	C211.948792,304.851440 212.323608,305.018890 212.698410,305.186340 
	C221.042511,296.125946 229.386612,287.065552 237.487411,278.269348 
	C230.274887,278.269348 221.903671,278.205536 213.537933,278.389801 
	C212.864700,278.404663 212.229065,280.125671 211.573975,281.955353 
M292.679413,292.293854 
	C294.662781,287.813324 296.646149,283.332794 298.714386,278.660522 
	C290.221741,278.660522 282.385773,278.660522 273.988495,278.660522 
	C276.598328,284.472260 278.957458,289.737335 281.330078,294.996338 
	C281.670715,295.751312 282.001892,296.527466 282.464203,297.207703 
	C284.753082,300.575684 288.336426,300.508331 290.433502,297.007690 
	C291.195557,295.735626 291.675079,294.294312 292.679413,292.293854 
M1199.882446,184.256897 
	C1196.088867,183.527451 1193.171753,184.677582 1192.134766,188.572968 
	C1191.248657,191.901566 1192.625366,195.060242 1195.906006,195.603043 
	C1198.175781,195.978577 1201.719482,194.883713 1203.083008,193.166641 
	C1205.656494,189.925751 1204.235352,186.624481 1199.882446,184.256897 
z"/>
<path fill="#C7ECF5" opacity="1.000000" stroke="none" 
	d="
M94.173141,244.999908 
	C94.170914,194.352356 94.167358,144.204803 94.167854,94.057266 
	C94.167931,86.291710 94.737488,85.687782 102.280128,85.686745 
	C146.929733,85.680626 191.579346,85.684021 236.228958,85.692574 
	C242.635376,85.693802 243.487122,86.541489 243.566345,92.812698 
	C243.570557,93.145866 243.536270,93.483032 243.575439,93.811722 
	C244.516678,101.710823 242.244186,107.994812 237.164413,114.635941 
	C219.954361,137.135757 221.896988,168.718048 240.451950,190.290268 
	C242.191574,192.312790 243.416290,195.499680 243.443466,198.160645 
	C243.681564,221.482712 243.597595,244.808121 243.591202,268.132538 
	C243.590744,269.751648 243.446915,271.370697 243.342224,273.567719 
	C233.752090,273.567719 224.471848,273.571350 215.191620,273.566620 
	C206.950974,273.562469 206.952789,273.558380 206.954956,282.019012 
	C206.957199,290.806244 206.955444,299.593506 206.955444,308.674164 
	C205.036255,308.787445 203.585464,308.947174 202.134613,308.947815 
	C168.647385,308.963043 135.160156,308.966400 101.672928,308.957489 
	C95.080750,308.955750 94.179070,308.058716 94.173927,301.477753 
	C94.159355,282.818481 94.171516,264.159180 94.173141,244.999908 
M206.517014,223.005310 
	C208.892242,222.243378 211.364609,221.688980 213.605560,220.640137 
	C214.908569,220.030289 215.840286,218.627182 216.939087,217.581024 
	C215.825287,216.717529 214.838730,215.481812 213.577164,215.050522 
	C204.921021,212.091232 195.904510,209.984924 187.579620,206.302658 
	C173.370224,200.017563 159.798279,199.793732 145.562775,206.330353 
	C137.305420,210.121948 128.234131,212.127029 119.578346,215.080322 
	C118.310936,215.512756 117.317619,216.748535 116.197487,217.612610 
	C117.325615,218.645676 118.297264,220.007248 119.617844,220.636307 
	C121.700081,221.628174 123.974815,222.341400 126.243782,222.787231 
	C129.909027,223.507416 131.433777,225.218323 131.247849,229.222839 
	C130.892746,236.871323 130.930893,244.557983 131.298035,252.205154 
	C131.382614,253.967056 133.085205,256.554504 134.673187,257.191467 
	C143.623611,260.781464 152.698456,264.104614 161.884552,267.037445 
	C164.656143,267.922302 168.150330,268.029297 170.914047,267.184967 
	C180.615082,264.221313 190.112000,260.596436 199.754196,257.428925 
	C202.499634,256.527069 203.279312,254.997787 203.239182,252.293518 
	C203.118073,244.130356 203.072403,235.960236 203.318680,227.802536 
	C203.365799,226.241455 204.877182,224.724594 206.517014,223.005310 
M132.583282,132.294800 
	C129.751404,132.314056 126.894806,132.130386 124.102051,132.470688 
	C123.212471,132.579086 122.492538,134.079651 121.694984,134.943207 
	C122.481438,135.642609 123.163368,136.642456 124.081955,136.962036 
	C125.128174,137.326019 126.385551,137.101028 127.551155,137.101181 
	C153.542770,137.104721 179.534393,137.105881 205.526016,137.098816 
	C206.856979,137.098465 208.253067,137.249191 209.494858,136.894943 
	C210.261902,136.676132 211.385025,135.541946 211.298111,134.981567 
	C211.154480,134.055557 210.314682,132.780197 209.493057,132.519547 
	C208.121414,132.084427 206.532669,132.300369 205.035294,132.299927 
	C181.209641,132.292831 157.383987,132.294922 132.583282,132.294800 
M195.493195,164.982147 
	C173.002380,164.981186 150.511581,164.979019 128.020767,164.982346 
	C126.688751,164.982544 125.272728,164.757935 124.052315,165.139099 
	C123.137909,165.424683 122.475365,166.516663 121.700684,167.249603 
	C122.522194,168.107834 123.201408,169.282516 124.205765,169.734116 
	C125.184540,170.174225 126.495880,169.896698 127.661209,169.896713 
	C153.650574,169.897278 179.639938,169.892883 205.629303,169.888153 
	C206.628830,169.887970 207.751633,170.161118 208.596863,169.796555 
	C209.668533,169.334305 210.514725,168.349304 211.458145,167.589737 
	C210.466827,166.727570 209.525757,165.200851 208.475235,165.121399 
	C204.499161,164.820633 200.487610,164.989182 195.493195,164.982147 
M134.538284,120.860077 
	C158.034790,120.860054 181.531311,120.861435 205.027817,120.856369 
	C206.359650,120.856079 207.822418,121.133759 208.983643,120.674149 
	C209.989120,120.276184 210.652512,119.013855 211.467102,118.133591 
	C210.663055,117.439102 209.958191,116.404381 209.030533,116.133949 
	C207.797134,115.774376 206.390106,115.993271 205.057678,115.993103 
	C180.394669,115.990005 155.731674,115.990913 131.068665,115.992325 
	C128.902359,115.992447 126.702652,115.781067 124.583984,116.101334 
	C123.541679,116.258896 122.649368,117.408676 121.689171,118.109444 
	C122.645142,119.017342 123.520218,120.578270 124.572502,120.708611 
	C127.527664,121.074646 130.555862,120.851082 134.538284,120.860077 
M138.503754,186.169815 
	C160.657166,186.169724 182.810593,186.170410 204.964005,186.167694 
	C206.296158,186.167526 207.695953,186.386124 208.938232,186.044525 
	C209.868683,185.788681 210.596268,184.795044 211.414185,184.129913 
	C210.639175,183.227753 210.027100,181.931580 209.046677,181.526093 
	C207.897522,181.050827 206.427887,181.319366 205.097229,181.318726 
	C179.612518,181.306320 154.127808,181.301437 128.643097,181.296890 
	C127.643776,181.296707 126.508163,181.014526 125.675484,181.391968 
	C124.248482,182.038818 123.010880,183.103531 121.693756,183.992783 
	C122.967125,184.714325 124.203346,185.965881 125.520813,186.058212 
	C129.499146,186.337067 133.509033,186.165665 138.503754,186.169815 
M164.500122,148.755096 
	C155.011292,148.755112 145.522446,148.752533 136.033615,148.756348 
	C132.205078,148.757889 128.366882,148.628540 124.554665,148.882553 
	C123.579498,148.947540 122.686462,150.245148 121.755684,150.976425 
	C122.628807,151.751495 123.407326,152.703751 124.408768,153.238510 
	C125.061722,153.587173 126.038620,153.341019 126.870399,153.341171 
	C153.339249,153.345871 179.808334,153.392715 206.276352,153.246140 
	C207.964020,153.236786 209.643356,151.724167 211.326553,150.910858 
	C209.535217,150.192520 207.751694,148.874863 205.951294,148.851379 
	C192.469452,148.675552 178.984268,148.755341 164.500122,148.755096 
z"/>
<path fill="#C6EAF2" opacity="1.000000" stroke="none" 
	d="
M247.952377,108.948868 
	C275.273376,83.602394 320.037079,91.014671 337.026001,125.440186 
	C352.356323,156.504745 335.194153,195.035828 301.703156,204.177292 
	C261.562469,215.133820 224.181137,181.768585 230.812286,140.770584 
	C232.813049,128.400635 238.579407,117.853752 247.952377,108.948868 
M316.494415,179.989014 
	C330.342163,164.811417 332.744812,145.538040 322.916840,128.470154 
	C312.174927,109.815041 287.330780,102.228821 268.089142,111.728378 
	C247.849991,121.720421 238.466492,145.653839 246.906631,165.819687 
	C258.664093,193.911453 293.880859,201.630188 316.494415,179.989014 
z"/>
<path fill="#C5E9F0" opacity="1.000000" stroke="none" 
	d="
M463.651154,201.694427 
	C465.339600,219.013855 460.371277,227.440720 444.100464,234.594910 
	C451.383881,247.358917 458.638123,260.071747 465.958862,272.901215 
	C455.573761,275.184509 454.080505,274.595673 449.218475,266.246124 
	C444.109070,257.471771 438.920532,248.737961 434.068207,239.822250 
	C432.153839,236.304718 429.857788,234.714050 425.813202,235.170456 
	C422.736084,235.517670 419.588409,235.239349 415.992004,235.239349 
	C415.992004,248.257477 415.992004,260.683289 415.992004,273.391907 
	C412.243622,273.391907 408.988342,273.391907 405.333984,273.391907 
	C405.333984,242.430939 405.333984,211.576965 405.333984,180.670273 
	C417.929230,180.670273 430.468933,179.671021 442.767822,180.963348 
	C454.097473,182.153809 460.675995,190.338470 463.651154,201.694427 
M421.673218,190.135269 
	C419.910889,190.135269 418.148590,190.135269 416.238403,190.135269 
	C416.238403,201.731583 416.238403,212.624344 416.238403,223.991501 
	C423.233612,223.991501 430.010071,224.173004 436.773010,223.947998 
	C446.369995,223.628677 453.156952,216.278259 453.033051,206.700287 
	C452.913971,197.493271 445.996552,190.463120 436.595154,190.165924 
	C431.945496,190.018951 427.287445,190.137070 421.673218,190.135269 
z"/>
<path fill="#C5E8F0" opacity="1.000000" stroke="none" 
	d="
M998.286743,232.202698 
	C1004.169922,216.056503 1010.056458,200.326508 1015.610046,184.479874 
	C1016.780701,181.139740 1018.417358,179.962128 1021.739197,180.390808 
	C1023.378113,180.602295 1025.097290,180.633652 1026.725952,180.387665 
	C1029.856201,179.914917 1031.167236,181.535416 1032.119263,184.190582 
	C1041.102051,209.243210 1050.147827,234.273315 1059.176758,259.309448 
	C1060.853149,263.958099 1062.535156,268.604767 1064.452637,273.911163 
	C1060.727417,273.911163 1057.604980,274.091736 1054.526001,273.805145 
	C1053.556274,273.714874 1052.390869,272.540192 1051.865234,271.565216 
	C1050.927246,269.825592 1050.415283,267.857483 1049.712158,265.989746 
	C1045.493042,254.780258 1045.491821,254.781738 1033.225708,254.780380 
	C1024.062744,254.779358 1014.898682,254.854095 1005.737488,254.723953 
	C1003.036499,254.685577 1001.356812,255.214920 1000.779663,258.219543 
	C1000.346741,260.473511 999.156982,262.572083 998.430237,264.781281 
	C995.083740,274.953278 995.099548,274.958466 983.476807,273.429016 
	C988.404419,259.730133 993.287964,246.153748 998.286743,232.202698 
M1007.066345,240.973007 
	C1007.577515,241.867294 1008.077759,243.534470 1008.601440,243.541885 
	C1019.328308,243.693604 1030.057861,243.655884 1041.629761,243.655884 
	C1035.661865,227.298431 1029.972534,211.704651 1023.852051,194.929214 
	C1020.663757,203.590729 1017.965881,210.879471 1015.298035,218.179169 
	C1012.620728,225.504974 1009.973267,232.841690 1007.066345,240.973007 
z"/>
<path fill="#C5E8F0" opacity="1.000000" stroke="none" 
	d="
M751.860840,240.000061 
	C751.860291,251.296234 751.860291,262.092407 751.860291,273.288757 
	C748.150452,273.288757 744.750549,273.288757 740.918274,273.288757 
	C740.627991,270.463379 740.325684,267.520447 740.045654,264.794434 
	C736.088196,267.733429 732.499268,271.645660 728.052917,273.483673 
	C709.396484,281.195892 686.620911,266.535339 683.467041,245.234329 
	C679.862976,220.892532 701.590149,200.097580 724.885925,206.267410 
	C730.624390,207.787216 735.558533,212.343674 740.803467,215.469025 
	C740.803467,213.481522 740.803467,210.320526 740.803467,207.052521 
	C744.665955,207.052521 747.947876,207.052521 751.861450,207.052521 
	C751.861450,218.001694 751.861450,228.750870 751.860840,240.000061 
M715.785645,264.393738 
	C730.853455,265.157379 741.084412,253.889679 739.580933,238.187042 
	C738.305237,224.862991 730.424927,216.386536 719.007568,216.057220 
	C706.523926,215.697174 696.168030,224.903641 694.657593,237.704605 
	C693.166260,250.343033 701.767212,261.623718 715.785645,264.393738 
z"/>
<path fill="#C5E8F0" opacity="1.000000" stroke="none" 
	d="
M1387.921509,242.000031 
	C1387.921509,252.635574 1387.921509,262.771118 1387.921509,273.294067 
	C1384.179688,273.294067 1380.767090,273.294067 1376.863403,273.294067 
	C1376.604004,270.510742 1376.330688,267.576141 1376.078613,264.870667 
	C1372.085571,267.804962 1368.463745,271.665741 1364.006958,273.526764 
	C1347.782471,280.301544 1326.411255,269.042358 1321.015137,251.403656 
	C1314.364502,229.664078 1326.479004,209.474091 1348.763794,205.460617 
	C1358.053467,203.787567 1366.209717,206.367294 1372.923584,213.134506 
	C1373.972412,214.191666 1374.980469,215.288940 1376.026001,216.349365 
	C1376.086060,216.410233 1376.314087,216.305481 1376.747925,216.225327 
	C1376.747925,213.378464 1376.747925,210.464340 1376.747925,207.201828 
	C1380.421265,207.201828 1383.817505,207.201828 1387.921509,207.201828 
	C1387.921509,218.656357 1387.921509,230.078186 1387.921509,242.000031 
M1335.496948,254.902512 
	C1346.239014,267.454773 1363.319458,267.968384 1371.236328,255.714127 
	C1377.223389,246.446945 1377.432251,236.569458 1372.325806,226.818741 
	C1368.525513,219.562149 1362.260742,215.925003 1354.024780,216.062332 
	C1344.912476,216.214279 1338.058960,220.493118 1333.753174,228.378815 
	C1328.956055,237.164154 1329.562744,245.933426 1335.496948,254.902512 
z"/>
<path fill="#C3E6EE" opacity="1.000000" stroke="none" 
	d="
M892.910889,181.133209 
	C892.910889,192.249313 892.910889,202.885193 892.910889,212.973846 
	C898.157898,210.513718 903.170166,207.188354 908.673645,205.772598 
	C923.156860,202.046783 938.511292,213.169006 940.221863,227.977020 
	C940.469543,230.121292 940.541382,232.295746 940.546265,234.456573 
	C940.575256,247.261429 940.560486,260.066376 940.560486,273.281891 
	C936.845215,273.281891 933.477783,273.281891 929.383972,273.281891 
	C929.383972,268.480042 929.385986,263.715546 929.383484,258.951019 
	C929.379456,251.122589 929.442810,243.293320 929.349792,235.465927 
	C929.218384,224.403137 921.493286,216.384674 911.153198,216.436600 
	C900.814148,216.488541 892.981812,224.616730 892.929504,235.492508 
	C892.869446,247.967896 892.915527,260.443787 892.915527,273.305664 
	C889.206848,273.305664 885.809387,273.305664 882.107483,273.305664 
	C882.107483,240.345200 882.107483,207.418411 882.107483,174.067932 
	C885.510071,174.067932 889.038513,174.067932 892.910828,174.067932 
	C892.910828,176.365463 892.910828,178.509232 892.910889,181.133209 
z"/>
<path fill="#C4E8EF" opacity="1.000000" stroke="none" 
	d="
M491.203613,211.192062 
	C503.395233,203.186981 515.700195,202.600601 527.511475,210.476517 
	C539.290649,218.331009 543.488953,230.188202 542.931519,244.617035 
	C524.718323,244.617035 506.981415,244.617035 488.691559,244.617035 
	C490.089722,253.459213 494.402191,259.360077 501.937317,262.666107 
	C509.605194,266.030396 518.986938,264.463013 524.318604,257.898010 
	C528.014954,253.346664 531.544922,252.602814 536.462280,254.505615 
	C537.373718,254.858322 538.376465,254.975006 539.342102,255.201782 
	C535.624695,268.989990 516.953796,278.744415 502.436676,274.646271 
	C488.376465,270.677124 479.887573,261.143433 477.248291,247.182617 
	C474.537537,232.843704 479.206635,220.599762 491.203613,211.192062 
M519.476440,235.816788 
	C523.276062,235.816788 527.075745,235.816788 530.859314,235.816788 
	C531.130676,224.917191 520.971680,215.109268 509.878937,215.114304 
	C498.724548,215.119370 488.653931,224.967010 489.094757,235.816803 
	C498.878540,235.816803 508.681549,235.816803 519.476440,235.816788 
z"/>
<path fill="#C4E8EF" opacity="1.000000" stroke="none" 
	d="
M610.193115,229.259918 
	C616.799866,211.277420 631.459045,202.574585 648.959595,205.938858 
	C665.083313,209.038452 677.438232,227.566254 674.270996,244.601608 
	C656.631409,244.601608 638.878540,244.601608 620.620972,244.601608 
	C622.064270,253.399643 626.323547,259.351074 633.868103,262.658173 
	C641.547791,266.024506 651.048096,264.497620 656.266357,257.887970 
	C659.989563,253.171967 663.542419,252.718414 668.419312,254.514618 
	C669.334961,254.851868 670.321350,254.997070 671.279663,255.232010 
	C667.476318,269.112885 648.834229,278.754242 634.214478,274.573059 
	C614.780212,269.014923 604.692322,250.242279 610.193115,229.259918 
M625.836365,235.813568 
	C638.210754,235.813568 650.585083,235.813568 662.994690,235.813568 
	C662.197205,224.143494 652.873413,215.401749 642.033203,215.075653 
	C631.644470,214.763153 620.955627,224.552139 620.632690,235.581650 
	C622.057434,235.657791 623.494446,235.734589 625.836365,235.813568 
z"/>
<path fill="#C5E9F0" opacity="1.000000" stroke="none" 
	d="
M1460.004395,248.000046 
	C1460.004395,256.652191 1460.004395,264.804352 1460.004395,273.320435 
	C1456.387939,273.320435 1452.995850,273.320435 1448.887939,273.320435 
	C1448.887939,267.507385 1448.889160,261.752960 1448.887573,255.998520 
	C1448.885742,249.170975 1448.931519,242.342957 1448.866821,235.515991 
	C1448.762207,224.493530 1441.131348,216.502060 1430.730713,216.432632 
	C1420.601196,216.365021 1412.753296,224.077393 1412.499756,234.933746 
	C1412.227661,246.584381 1412.424438,258.245880 1412.404297,269.902649 
	C1412.402710,270.886047 1412.309448,271.869293 1412.237549,273.264648 
	C1408.732056,273.264648 1405.354126,273.264648 1401.550903,273.264648 
	C1401.550903,251.464294 1401.550903,229.596085 1401.550903,207.286591 
	C1404.779663,207.286591 1408.162964,207.286591 1412.005981,207.286591 
	C1412.241089,209.226578 1412.505615,211.410049 1412.676025,212.816803 
	C1417.687012,210.449860 1422.454712,207.220688 1427.702637,205.901535 
	C1443.680542,201.885223 1459.233154,213.992920 1459.929688,230.516373 
	C1460.167969,236.168594 1459.991455,241.838333 1460.004395,248.000046 
z"/>
<path fill="#C6EAF2" opacity="1.000000" stroke="none" 
	d="
M272.342621,230.000214 
	C272.342621,223.062149 272.342621,216.623993 272.342621,210.429077 
	C281.808411,210.429077 290.691132,210.429077 299.934448,210.429077 
	C299.934448,231.000778 299.934448,252.013214 299.934448,273.607544 
	C295.394348,273.607544 290.951813,273.607574 286.509277,273.607574 
	C282.041412,273.607574 277.573517,273.607544 272.342621,273.607544 
	C272.342621,258.980499 272.342621,244.740311 272.342621,230.000214 
z"/>
<path fill="#C4E7EE" opacity="1.000000" stroke="none" 
	d="
M1151.211548,264.225464 
	C1155.833252,263.995361 1160.196411,264.185516 1164.255371,263.165619 
	C1167.967529,262.232910 1170.386963,259.311401 1170.371338,255.023544 
	C1170.355957,250.775558 1167.525391,248.733414 1164.124878,247.513000 
	C1158.186157,245.381592 1152.076538,243.727432 1146.131592,241.611893 
	C1136.289673,238.109634 1131.743164,232.278015 1132.019775,223.951126 
	C1132.300415,215.501465 1138.023071,208.799637 1147.427979,205.906631 
	C1160.695801,201.825378 1174.852051,206.599167 1180.713989,217.419907 
	C1178.090576,219.028000 1175.442871,220.650909 1172.459717,222.479401 
	C1167.309082,215.788437 1160.549805,213.196915 1152.314209,214.986893 
	C1150.550903,215.370163 1148.279053,215.703384 1147.298462,216.915039 
	C1145.344604,219.329376 1142.985474,222.330627 1142.968994,225.102325 
	C1142.956543,227.234222 1145.859497,230.314117 1148.188110,231.351501 
	C1154.697388,234.251373 1161.738892,235.948639 1168.275146,238.797714 
	C1175.406494,241.906143 1181.255249,246.428940 1180.929932,255.493332 
	C1180.699707,261.906128 1177.491577,266.526245 1172.445801,269.985382 
	C1161.517090,277.477692 1145.146729,276.313019 1135.377563,267.328461 
	C1133.492310,265.594604 1132.083252,263.343109 1130.154297,260.959442 
	C1132.364990,259.762115 1133.900269,258.874908 1135.484375,258.085236 
	C1138.008667,256.826843 1139.934692,256.414764 1142.342407,259.198456 
	C1144.363037,261.534912 1147.935181,262.529572 1151.211548,264.225464 
z"/>
<path fill="#C4E8EF" opacity="1.000000" stroke="none" 
	d="
M1233.061523,263.300598 
	C1238.302490,263.531891 1243.287231,264.272888 1248.020996,263.492065 
	C1252.110596,262.817444 1254.997192,259.693512 1254.947998,254.922913 
	C1254.901489,250.415695 1251.691895,248.534195 1248.168457,247.277130 
	C1241.913818,245.045624 1235.432251,243.422104 1229.254150,241.010330 
	C1217.071899,236.254654 1212.793213,224.113190 1219.660278,214.475189 
	C1224.365845,207.870819 1231.249878,205.256866 1238.948486,204.405472 
	C1249.591553,203.228455 1260.860718,208.800446 1265.270996,217.494019 
	C1262.648682,219.082993 1260.001465,220.687088 1257.079712,222.457535 
	C1251.669312,215.534622 1244.688110,213.075439 1236.302368,215.109528 
	C1234.407715,215.569077 1232.457520,216.373947 1230.892578,217.513824 
	C1225.253540,221.621033 1225.990356,228.724518 1232.442139,231.335175 
	C1238.594971,233.824921 1244.951416,235.811920 1251.218384,238.019684 
	C1251.532471,238.130356 1251.855225,238.220261 1252.160889,238.350555 
	C1261.545410,242.350784 1266.206665,248.522552 1265.592041,256.127228 
	C1264.942505,264.162811 1258.298096,271.132874 1249.277832,273.564545 
	C1238.760498,276.399811 1229.135986,274.785217 1220.650269,267.904816 
	C1218.425293,266.100677 1216.821167,263.530731 1214.531494,260.842468 
	C1217.079834,259.599792 1218.844604,258.758881 1220.591553,257.882538 
	C1222.874268,256.737457 1224.644409,256.564331 1226.598267,258.973541 
	C1228.085815,260.807678 1230.625122,261.788940 1233.061523,263.300598 
z"/>
<path fill="#C4E8EF" opacity="1.000000" stroke="none" 
	d="
M1086.332275,240.710510 
	C1078.229492,236.802292 1073.432739,231.212570 1074.847412,222.012863 
	C1076.195312,213.247498 1081.948486,208.450531 1089.974976,205.928543 
	C1101.056152,202.446716 1110.994263,204.673965 1119.708740,212.253143 
	C1121.153442,213.509613 1122.169067,215.259506 1123.722412,217.207001 
	C1120.661743,219.071594 1118.029907,220.675003 1115.080078,222.472061 
	C1109.862061,215.740875 1103.094849,213.208023 1094.861328,214.990601 
	C1093.412720,215.304230 1091.530762,215.494843 1090.711060,216.468277 
	C1088.595337,218.980652 1086.033203,221.695465 1085.371948,224.707535 
	C1084.550049,228.451111 1087.907837,230.515945 1091.217529,231.717957 
	C1097.777588,234.100494 1104.490479,236.108902 1110.914307,238.809525 
	C1120.668457,242.910309 1124.496094,248.661469 1123.024902,257.533936 
	C1122.464722,260.912811 1120.659180,264.588318 1118.309570,267.080811 
	C1107.755615,278.276459 1085.463257,277.105927 1075.788330,265.152100 
	C1074.766724,263.889954 1074.040771,262.388641 1073.027344,260.756104 
	C1074.905884,259.768250 1076.485962,258.940369 1078.063232,258.107025 
	C1080.620850,256.755676 1082.473022,256.610840 1084.870117,259.238312 
	C1090.088623,264.958282 1099.636108,266.502197 1106.602173,263.467346 
	C1110.350342,261.834412 1113.049927,259.351868 1112.960327,254.835587 
	C1112.875977,250.579956 1109.928955,248.651474 1106.546265,247.445236 
	C1099.974976,245.101944 1093.298950,243.051697 1086.332275,240.710510 
z"/>
<path fill="#C5E8F0" opacity="1.000000" stroke="none" 
	d="
M553.995117,265.943695 
	C552.739502,264.190582 551.723389,262.708923 550.333618,260.682434 
	C552.781738,259.543457 554.746826,258.187592 556.892090,257.779663 
	C558.432678,257.486786 560.694946,257.935394 561.808472,258.955627 
	C568.169678,264.784149 577.102966,266.636200 584.492126,263.297455 
	C588.098816,261.667847 590.594421,259.151459 590.589111,254.979187 
	C590.583801,250.818954 587.683777,248.718887 584.261963,247.499222 
	C578.472351,245.435593 572.527039,243.810135 566.728882,241.768555 
	C556.722839,238.245361 552.028564,232.514191 552.186951,224.383453 
	C552.361267,215.435059 558.201355,209.112320 568.132263,205.665771 
	C579.886230,201.586517 597.405090,207.894348 600.831726,217.489410 
	C598.219849,219.062210 595.550903,220.669418 592.605591,222.443008 
	C587.379272,215.662949 580.570129,213.219666 572.311157,214.989990 
	C571.178650,215.232742 570.032288,215.533493 568.979614,216.003082 
	C565.196167,217.690933 562.721436,220.326202 562.809265,224.786667 
	C562.895081,229.140701 565.996643,230.717697 569.386536,231.951050 
	C575.792053,234.281647 582.394287,236.148361 588.615906,238.886993 
	C595.759399,242.031448 601.512085,246.635040 601.086914,255.695435 
	C600.775879,262.323273 597.342163,266.958282 591.999573,270.317749 
	C580.026367,277.846588 565.328735,276.192932 553.995117,265.943695 
z"/>
<path fill="#C5E8F0" opacity="1.000000" stroke="none" 
	d="
M830.089600,220.925766 
	C818.754150,231.579941 817.942261,247.368149 827.913879,257.625061 
	C835.309814,265.232697 846.362366,266.854950 854.570129,260.190338 
	C859.256042,256.385376 862.527222,256.908356 866.634644,259.908386 
	C867.419800,260.481873 868.305176,260.918152 869.146484,261.419067 
	C862.445129,272.285614 847.684998,278.037811 835.569214,274.630005 
	C820.104431,270.280182 810.044556,257.243958 809.765259,241.191483 
	C809.491760,225.474930 819.191345,210.983154 832.866516,206.676727 
	C846.753174,202.303696 861.285278,207.159439 869.212524,219.174438 
	C866.195190,220.856857 863.205811,222.523666 859.941467,224.343826 
	C850.991333,215.960785 841.285645,213.011383 830.089600,220.925766 
z"/>
<path fill="#C6E9F1" opacity="1.000000" stroke="none" 
	d="
M1492.963623,201.000092 
	C1492.963501,203.141632 1492.963501,204.781021 1492.963501,206.772430 
	C1498.032715,206.772430 1502.656494,206.772430 1507.607178,206.772430 
	C1507.607178,210.510849 1507.607178,213.914581 1507.607178,217.868820 
	C1503.043579,217.868820 1498.322998,217.868820 1493.083374,217.868820 
	C1493.083374,236.610718 1493.083374,254.819199 1493.083374,273.350189 
	C1489.135742,273.350189 1485.712402,273.350189 1481.770142,273.350189 
	C1481.770142,255.191406 1481.770142,236.987854 1481.770142,218.229996 
	C1477.720093,218.229996 1474.163208,218.229996 1470.355469,218.229996 
	C1470.355469,214.256516 1470.355469,210.833435 1470.355469,206.953781 
	C1473.827393,206.953781 1477.254517,206.953781 1481.316528,206.953781 
	C1481.316528,199.824768 1481.316528,193.116257 1481.316528,186.183044 
	C1485.382568,186.183044 1488.816284,186.183044 1492.963623,186.183044 
	C1492.963623,190.977554 1492.963623,195.737747 1492.963623,201.000092 
z"/>
<path fill="#C7EBF3" opacity="1.000000" stroke="none" 
	d="
M1296.228149,199.794647 
	C1296.229736,202.226013 1296.229736,204.184052 1296.229736,206.698456 
	C1301.431885,206.698456 1306.167847,206.698456 1311.150879,206.698456 
	C1311.150879,210.690125 1311.150879,214.121094 1311.150879,218.027222 
	C1306.273926,218.027222 1301.532227,218.027222 1296.247070,218.027222 
	C1296.247070,236.703003 1296.247070,254.916565 1296.247070,273.407745 
	C1292.433105,273.407745 1289.171143,273.407745 1285.396484,273.407745 
	C1285.396484,255.172455 1285.396484,236.980331 1285.396484,218.271423 
	C1281.333008,218.271423 1277.758789,218.271423 1273.949097,218.271423 
	C1273.949097,214.312134 1273.949097,210.872131 1273.949097,206.970917 
	C1277.475830,206.970917 1280.887573,206.970917 1284.934082,206.970917 
	C1284.934082,199.853012 1284.934082,193.160629 1284.934082,186.214508 
	C1288.829956,186.214508 1292.095703,186.214508 1296.226562,186.214508 
	C1296.226562,190.507202 1296.226562,194.914261 1296.228149,199.794647 
z"/>
<path fill="#C5E8F0" opacity="1.000000" stroke="none" 
	d="
M765.088074,222.005493 
	C765.088074,216.870392 765.088074,212.234222 765.088074,207.227234 
	C768.871521,207.227234 772.274841,207.227234 775.982056,207.227234 
	C776.230347,209.170349 776.490906,211.209259 776.843018,213.964783 
	C784.898743,206.660355 793.502319,203.003403 804.335510,206.260986 
	C802.867126,209.947220 801.532227,213.298309 800.117188,216.850647 
	C798.577820,216.727905 797.301208,216.619659 796.023560,216.525253 
	C785.229553,215.727585 776.608826,223.767990 776.434326,235.103333 
	C776.265076,246.093613 776.391724,257.088440 776.388550,268.081268 
	C776.388062,269.716583 776.388428,271.351868 776.388428,273.335144 
	C772.589783,273.335144 769.200012,273.335144 765.088074,273.335144 
	C765.088074,256.329865 765.088074,239.417145 765.088074,222.005493 
z"/>
<path fill="#BDDEE6" opacity="1.000000" stroke="none" 
	d="
M1192.490723,207.888641 
	C1196.036499,207.193237 1199.448853,206.899475 1203.260986,206.571289 
	C1203.260986,229.072281 1203.260986,250.952164 1203.260986,273.281036 
	C1199.949463,273.281036 1196.569824,273.281036 1192.357300,273.281036 
	C1192.357300,251.723618 1192.357300,230.006943 1192.490723,207.888641 
z"/>
<path fill="#C4E7EE" opacity="1.000000" stroke="none" 
	d="
M211.574982,281.504578 
	C212.229065,280.125671 212.864700,278.404663 213.537933,278.389801 
	C221.903671,278.205536 230.274887,278.269348 237.487411,278.269348 
	C229.386612,287.065552 221.042511,296.125946 212.698410,305.186340 
	C212.323608,305.018890 211.948792,304.851440 211.573975,304.683990 
	C211.573975,297.107758 211.573975,289.531555 211.574982,281.504578 
z"/>
<path fill="#C2E3EB" opacity="1.000000" stroke="none" 
	d="
M292.481445,292.612030 
	C291.675079,294.294312 291.195557,295.735626 290.433502,297.007690 
	C288.336426,300.508331 284.753082,300.575684 282.464203,297.207703 
	C282.001892,296.527466 281.670715,295.751312 281.330078,294.996338 
	C278.957458,289.737335 276.598328,284.472260 273.988495,278.660522 
	C282.385773,278.660522 290.221741,278.660522 298.714386,278.660522 
	C296.646149,283.332794 294.662781,287.813324 292.481445,292.612030 
z"/>
<path fill="#C2E3EB" opacity="1.000000" stroke="none" 
	d="
M1200.242920,184.391327 
	C1204.235352,186.624481 1205.656494,189.925751 1203.083008,193.166641 
	C1201.719482,194.883713 1198.175781,195.978577 1195.906006,195.603043 
	C1192.625366,195.060242 1191.248657,191.901566 1192.134766,188.572968 
	C1193.171753,184.677582 1196.088867,183.527451 1200.242920,184.391327 
z"/>
<path fill="#292F32" opacity="1.000000" stroke="none" 
	d="
M206.115005,223.096313 
	C204.877182,224.724594 203.365799,226.241455 203.318680,227.802536 
	C203.072403,235.960236 203.118073,244.130356 203.239182,252.293518 
	C203.279312,254.997787 202.499634,256.527069 199.754196,257.428925 
	C190.112000,260.596436 180.615082,264.221313 170.914047,267.184967 
	C168.150330,268.029297 164.656143,267.922302 161.884552,267.037445 
	C152.698456,264.104614 143.623611,260.781464 134.673187,257.191467 
	C133.085205,256.554504 131.382614,253.967056 131.298035,252.205154 
	C130.930893,244.557983 130.892746,236.871323 131.247849,229.222839 
	C131.433777,225.218323 129.909027,223.507416 126.243782,222.787231 
	C123.974815,222.341400 121.700081,221.628174 119.617844,220.636307 
	C118.297264,220.007248 117.325615,218.645676 116.197479,217.612610 
	C117.317619,216.748535 118.310936,215.512756 119.578346,215.080322 
	C128.234131,212.127029 137.305420,210.121948 145.562775,206.330353 
	C159.798279,199.793732 173.370224,200.017563 187.579620,206.302658 
	C195.904510,209.984924 204.921021,212.091232 213.577164,215.050522 
	C214.838730,215.481812 215.825287,216.717529 216.939087,217.581024 
	C215.840286,218.627182 214.908569,220.030289 213.605560,220.640137 
	C211.364609,221.688980 208.892242,222.243378 206.115005,223.096313 
M153.672699,226.910202 
	C162.791077,231.537842 171.795242,230.923004 180.758179,226.405273 
	C181.928299,225.815460 183.297775,225.630325 184.559814,225.212189 
	C191.558716,222.893326 198.552933,220.560364 206.813293,217.811401 
	C192.916061,213.282944 180.355759,209.176483 167.777451,205.125931 
	C167.035507,204.886993 166.081680,204.890991 165.339142,205.130829 
	C152.774277,209.189560 140.227264,213.303619 126.247803,217.872284 
	C136.042450,221.077866 144.489639,223.842453 153.672699,226.910202 
M156.616699,232.820511 
	C149.867371,230.635010 143.118042,228.449509 136.011932,226.148483 
	C136.011932,228.977554 136.274414,231.337631 135.955109,233.616180 
	C135.363159,237.840164 137.064926,239.804672 141.132584,240.969742 
	C148.638733,243.119690 155.962097,245.900513 163.414825,248.249741 
	C165.073120,248.772461 167.114960,249.133972 168.701904,248.652466 
	C177.605789,245.950882 186.453125,243.050659 195.239777,239.988724 
	C196.485565,239.554611 198.026138,237.952408 198.166687,236.743896 
	C198.564392,233.324051 198.305908,229.827896 198.305908,225.826553 
	C190.296295,228.397461 182.728745,230.362381 175.543991,233.272385 
	C169.247467,235.822647 163.403198,236.087036 156.616699,232.820511 
M157.264557,251.260651 
	C150.375320,248.942688 143.486084,246.624725 136.214233,244.178040 
	C136.214233,247.418030 136.214233,250.025757 136.214233,252.897614 
	C145.701767,256.293152 155.185349,259.816528 164.781799,262.999603 
	C166.458771,263.555817 168.716278,263.002563 170.524704,262.409729 
	C177.941101,259.978577 185.266098,257.270142 192.666046,254.786835 
	C199.193527,252.596313 199.566010,251.949020 197.349014,244.445755 
	C190.100845,246.809952 182.734375,248.854294 175.655228,251.631180 
	C169.603897,254.004883 163.882950,254.600830 157.264557,251.260651 
z"/>
<path fill="#2E373A" opacity="1.000000" stroke="none" 
	d="
M133.070801,132.294861 
	C157.383987,132.294922 181.209641,132.292831 205.035294,132.299927 
	C206.532669,132.300369 208.121414,132.084427 209.493057,132.519547 
	C210.314682,132.780197 211.154480,134.055557 211.298111,134.981567 
	C211.385025,135.541946 210.261902,136.676132 209.494858,136.894943 
	C208.253067,137.249191 206.856979,137.098465 205.526016,137.098816 
	C179.534393,137.105881 153.542770,137.104721 127.551155,137.101181 
	C126.385551,137.101028 125.128174,137.326019 124.081955,136.962036 
	C123.163368,136.642456 122.481438,135.642609 121.694984,134.943207 
	C122.492538,134.079651 123.212471,132.579086 124.102051,132.470688 
	C126.894806,132.130386 129.751404,132.314056 133.070801,132.294861 
z"/>
<path fill="#2E373A" opacity="1.000000" stroke="none" 
	d="
M195.991257,164.982147 
	C200.487610,164.989182 204.499161,164.820633 208.475235,165.121399 
	C209.525757,165.200851 210.466827,166.727570 211.458145,167.589737 
	C210.514725,168.349304 209.668533,169.334305 208.596863,169.796555 
	C207.751633,170.161118 206.628830,169.887970 205.629303,169.888153 
	C179.639938,169.892883 153.650574,169.897278 127.661209,169.896713 
	C126.495880,169.896698 125.184540,170.174225 124.205765,169.734116 
	C123.201408,169.282516 122.522194,168.107834 121.700684,167.249603 
	C122.475365,166.516663 123.137909,165.424683 124.052315,165.139099 
	C125.272728,164.757935 126.688751,164.982544 128.020767,164.982346 
	C150.511581,164.979019 173.002380,164.981186 195.991257,164.982147 
z"/>
<path fill="#2E373A" opacity="1.000000" stroke="none" 
	d="
M134.046768,120.860062 
	C130.555862,120.851082 127.527664,121.074646 124.572502,120.708611 
	C123.520218,120.578270 122.645142,119.017342 121.689178,118.109451 
	C122.649368,117.408676 123.541679,116.258896 124.583984,116.101334 
	C126.702652,115.781067 128.902359,115.992447 131.068665,115.992325 
	C155.731674,115.990913 180.394669,115.990005 205.057678,115.993103 
	C206.390106,115.993271 207.797134,115.774376 209.030533,116.133949 
	C209.958191,116.404381 210.663055,117.439102 211.467102,118.133591 
	C210.652512,119.013855 209.989120,120.276184 208.983643,120.674149 
	C207.822418,121.133759 206.359650,120.856079 205.027817,120.856369 
	C181.531311,120.861435 158.034790,120.860054 134.046768,120.860062 
z"/>
<path fill="#2B3435" opacity="1.000000" stroke="none" 
	d="
M138.005188,186.169800 
	C133.509033,186.165665 129.499146,186.337067 125.520813,186.058212 
	C124.203346,185.965881 122.967125,184.714325 121.693756,183.992783 
	C123.010880,183.103531 124.248482,182.038818 125.675484,181.391968 
	C126.508163,181.014526 127.643776,181.296707 128.643097,181.296890 
	C154.127808,181.301437 179.612518,181.306320 205.097229,181.318726 
	C206.427887,181.319366 207.897522,181.050827 209.046677,181.526093 
	C210.027100,181.931580 210.639175,183.227753 211.414185,184.129913 
	C210.596268,184.795044 209.868683,185.788681 208.938232,186.044525 
	C207.695953,186.386124 206.296158,186.167526 204.964005,186.167694 
	C182.810593,186.170410 160.657166,186.169724 138.005188,186.169800 
z"/>
<path fill="#252829" opacity="1.000000" stroke="none" 
	d="
M165.000122,148.755096 
	C178.984268,148.755341 192.469452,148.675552 205.951294,148.851379 
	C207.751694,148.874863 209.535217,150.192520 211.326553,150.910858 
	C209.643356,151.724167 207.964020,153.236786 206.276352,153.246140 
	C179.808334,153.392715 153.339249,153.345871 126.870399,153.341171 
	C126.038620,153.341019 125.061722,153.587173 124.408768,153.238510 
	C123.407326,152.703751 122.628807,151.751495 121.755692,150.976440 
	C122.686462,150.245148 123.579498,148.947540 124.554665,148.882553 
	C128.366882,148.628540 132.205078,148.757889 136.033615,148.756348 
	C145.522446,148.752533 155.011292,148.755112 165.000122,148.755096 
z"/>
<path fill="#293033" opacity="1.000000" stroke="none" 
	d="
M316.242004,180.241745 
	C293.880859,201.630188 258.664093,193.911453 246.906631,165.819687 
	C238.466492,145.653839 247.849991,121.720421 268.089142,111.728378 
	C287.330780,102.228821 312.174927,109.815041 322.916840,128.470154 
	C332.744812,145.538040 330.342163,164.811417 316.242004,180.241745 
M256.951111,173.483932 
	C263.571899,181.580109 272.029419,186.387756 282.450684,187.560410 
	C303.551544,189.934753 322.874115,173.496872 323.919434,152.334946 
	C325.007111,130.315216 307.490631,111.732834 285.949402,112.420006 
	C270.890656,112.900375 259.418823,119.945602 252.740738,133.432144 
	C245.966766,147.112366 247.516693,160.489304 256.951111,173.483932 
z"/>
<path fill="#222324" opacity="1.000000" stroke="none" 
	d="
M422.153198,190.135254 
	C427.287445,190.137070 431.945496,190.018951 436.595154,190.165924 
	C445.996552,190.463120 452.913971,197.493271 453.033051,206.700287 
	C453.156952,216.278259 446.369995,223.628677 436.773010,223.947998 
	C430.010071,224.173004 423.233612,223.991501 416.238403,223.991501 
	C416.238403,212.624344 416.238403,201.731583 416.238403,190.135269 
	C418.148590,190.135269 419.910889,190.135269 422.153198,190.135254 
z"/>
<path fill="#252829" opacity="1.000000" stroke="none" 
	d="
M1007.189514,240.573303 
	C1009.973267,232.841690 1012.620728,225.504974 1015.298035,218.179169 
	C1017.965881,210.879471 1020.663757,203.590729 1023.852051,194.929214 
	C1029.972534,211.704651 1035.661865,227.298431 1041.629761,243.655884 
	C1030.057861,243.655884 1019.328308,243.693604 1008.601440,243.541885 
	C1008.077759,243.534470 1007.577515,241.867294 1007.189514,240.573303 
z"/>
<path fill="#222324" opacity="1.000000" stroke="none" 
	d="
M715.344727,264.326416 
	C701.767212,261.623718 693.166260,250.343033 694.657593,237.704605 
	C696.168030,224.903641 706.523926,215.697174 719.007568,216.057220 
	C730.424927,216.386536 738.305237,224.862991 739.580933,238.187042 
	C741.084412,253.889679 730.853455,265.157379 715.344727,264.326416 
z"/>
<path fill="#222324" opacity="1.000000" stroke="none" 
	d="
M1335.262695,254.621353 
	C1329.562744,245.933426 1328.956055,237.164154 1333.753174,228.378815 
	C1338.058960,220.493118 1344.912476,216.214279 1354.024780,216.062332 
	C1362.260742,215.925003 1368.525513,219.562149 1372.325806,226.818741 
	C1377.432251,236.569458 1377.223389,246.446945 1371.236328,255.714127 
	C1363.319458,267.968384 1346.239014,267.454773 1335.262695,254.621353 
z"/>
<path fill="#252829" opacity="1.000000" stroke="none" 
	d="
M518.980469,235.816803 
	C508.681549,235.816803 498.878540,235.816803 489.094757,235.816803 
	C488.653931,224.967010 498.724548,215.119370 509.878937,215.114304 
	C520.971680,215.109268 531.130676,224.917191 530.859314,235.816788 
	C527.075745,235.816788 523.276062,235.816788 518.980469,235.816803 
z"/>
<path fill="#252829" opacity="1.000000" stroke="none" 
	d="
M625.383911,235.812469 
	C623.494446,235.734589 622.057434,235.657791 620.632690,235.581650 
	C620.955627,224.552139 631.644470,214.763153 642.033203,215.075653 
	C652.873413,215.401749 662.197205,224.143494 662.994690,235.813568 
	C650.585083,235.813568 638.210754,235.813568 625.383911,235.812469 
z"/>
<path fill="#C6E9F1" opacity="1.000000" stroke="none" 
	d="
M153.304749,226.758621 
	C144.489639,223.842453 136.042450,221.077866 126.247803,217.872284 
	C140.227264,213.303619 152.774277,209.189560 165.339142,205.130829 
	C166.081680,204.890991 167.035507,204.886993 167.777451,205.125931 
	C180.355759,209.176483 192.916061,213.282944 206.813293,217.811401 
	C198.552933,220.560364 191.558716,222.893326 184.559814,225.212189 
	C183.297775,225.630325 181.928299,225.815460 180.758179,226.405273 
	C171.795242,230.923004 162.791077,231.537842 153.304749,226.758621 
z"/>
<path fill="#C6E9F1" opacity="1.000000" stroke="none" 
	d="
M157.002533,232.923645 
	C163.403198,236.087036 169.247467,235.822647 175.543991,233.272385 
	C182.728745,230.362381 190.296295,228.397461 198.305908,225.826553 
	C198.305908,229.827896 198.564392,233.324051 198.166687,236.743896 
	C198.026138,237.952408 196.485565,239.554611 195.239777,239.988724 
	C186.453125,243.050659 177.605789,245.950882 168.701904,248.652466 
	C167.114960,249.133972 165.073120,248.772461 163.414825,248.249741 
	C155.962097,245.900513 148.638733,243.119690 141.132584,240.969742 
	C137.064926,239.804672 135.363159,237.840164 135.955109,233.616180 
	C136.274414,231.337631 136.011932,228.977554 136.011932,226.148483 
	C143.118042,228.449509 149.867371,230.635010 157.002533,232.923645 
z"/>
<path fill="#C4E7EE" opacity="1.000000" stroke="none" 
	d="
M157.640808,251.395096 
	C163.882950,254.600830 169.603897,254.004883 175.655228,251.631180 
	C182.734375,248.854294 190.100845,246.809952 197.349014,244.445755 
	C199.566010,251.949020 199.193527,252.596313 192.666046,254.786835 
	C185.266098,257.270142 177.941101,259.978577 170.524704,262.409729 
	C168.716278,263.002563 166.458771,263.555817 164.781799,262.999603 
	C155.185349,259.816528 145.701767,256.293152 136.214233,252.897614 
	C136.214233,250.025757 136.214233,247.418030 136.214233,244.178040 
	C143.486084,246.624725 150.375320,248.942688 157.640808,251.395096 
z"/>
<path fill="#C8EDF5" opacity="1.000000" stroke="none" 
	d="
M256.730835,173.197693 
	C247.516693,160.489304 245.966766,147.112366 252.740738,133.432144 
	C259.418823,119.945602 270.890656,112.900375 285.949402,112.420006 
	C307.490631,111.732834 325.007111,130.315216 323.919434,152.334946 
	C322.874115,173.496872 303.551544,189.934753 282.450684,187.560410 
	C272.029419,186.387756 263.571899,181.580109 256.730835,173.197693 
M308.115784,149.079544 
	C307.944977,142.778259 305.450439,137.547531 300.610229,133.558701 
	C299.821259,132.908524 298.307159,133.138260 297.128235,132.961304 
	C297.192688,134.260620 296.726929,136.113068 297.409607,136.767410 
	C301.187653,140.388855 303.174042,144.691055 303.712463,149.846771 
	C303.803497,150.718491 304.995178,151.475266 305.678314,152.285126 
	C306.491150,151.479523 307.304016,150.673920 308.115784,149.079544 
z"/>
<path fill="#2B3435" opacity="1.000000" stroke="none" 
	d="
M308.116333,149.473938 
	C307.304016,150.673920 306.491150,151.479523 305.678314,152.285126 
	C304.995178,151.475266 303.803497,150.718491 303.712463,149.846771 
	C303.174042,144.691055 301.187653,140.388855 297.409607,136.767410 
	C296.726929,136.113068 297.192688,134.260620 297.128235,132.961304 
	C298.307159,133.138260 299.821259,132.908524 300.610229,133.558701 
	C305.450439,137.547531 307.944977,142.778259 308.116333,149.473938 
z"/>
</svg>